<svg xmlns="http://www.w3.org/2000/svg" xmlns:xlink="http://www.w3.org/1999/xlink" zoomAndPan="magnify" preserveAspectRatio="xMidYMid meet" version="1.0" viewBox="149.5 451.82 1180.74 573.91"><defs><g/><clipPath id="fe762447c4"><path d="M 659 551 L 749.496094 551 L 749.496094 638 L 659 638 Z M 659 551 " clip-rule="nonzero"/></clipPath><clipPath id="d9b3498434"><path d="M 239.050781 574 L 520 574 L 520 1025.730469 L 239.050781 1025.730469 Z M 239.050781 574 " clip-rule="nonzero"/></clipPath><clipPath id="f79a0f79f7"><path d="M 149.496094 451 L 537 451 L 537 731 L 149.496094 731 Z M 149.496094 451 " clip-rule="nonzero"/></clipPath><clipPath id="048fb41012"><rect x="0" width="940" y="0" height="269"/></clipPath></defs><g clip-path="url(#fe762447c4)"><path fill="#44a6d9" d="M 704.265625 551.800781 L 718.222656 584.648438 L 749.496094 584.648438 L 726.863281 606.722656 L 732.214844 637.855469 L 704.265625 623.128906 L 676.28125 637.855469 L 681.632812 606.722656 L 659.035156 584.648438 L 690.273438 584.648438 L 704.265625 551.800781 " fill-opacity="1" fill-rule="nonzero"/></g><path fill="#264790" d="M 603.242188 462.808594 L 612.652344 484.953125 L 633.746094 484.953125 L 618.492188 499.820312 L 622.09375 520.773438 L 603.242188 510.875 L 584.421875 520.773438 L 587.988281 499.820312 L 572.773438 484.953125 L 593.832031 484.953125 L 603.242188 462.808594 " fill-opacity="1" fill-rule="nonzero"/><path fill="#44a6d9" d="M 539.539062 629.042969 L 545.730469 643.59375 L 559.546875 643.59375 L 549.542969 653.320312 L 551.921875 667.101562 L 539.539062 660.59375 L 527.191406 667.101562 L 529.570312 653.320312 L 519.566406 643.59375 L 533.382812 643.59375 L 539.539062 629.042969 " fill-opacity="1" fill-rule="nonzero"/><g clip-path="url(#d9b3498434)"><path fill="#44a6d9" d="M 275.570312 768.476562 C 255.5625 885.875 330.070312 997.605469 443.867188 1025.730469 C 438.339844 1025.207031 432.742188 1024.46875 427.144531 1023.492188 C 304.148438 1002.570312 221.382812 885.804688 242.339844 762.808594 C 263.292969 639.816406 380.023438 557.015625 503.019531 577.96875 C 508.617188 578.949219 514.144531 580.101562 519.566406 581.433594 C 402.867188 570.308594 295.578125 651.042969 275.570312 768.476562 " fill-opacity="1" fill-rule="evenodd"/></g><path fill="#264790" d="M 617.128906 942.683594 C 431.132812 1048.609375 247.550781 789.640625 409.058594 649.191406 C 403.882812 652.164062 398.773438 655.382812 393.808594 658.914062 C 312.371094 716.667969 293.132812 829.519531 350.851562 910.957031 C 408.605469 992.394531 521.453125 1011.597656 602.890625 953.878906 C 607.859375 950.34375 612.617188 946.601562 617.128906 942.683594 " fill-opacity="1" fill-rule="evenodd"/><g clip-path="url(#f79a0f79f7)"><path fill="#264790" d="M 480.140625 516.367188 L 491.371094 543.476562 C 482.519531 542.53125 473.667969 542.078125 464.855469 542.078125 C 404.511719 542.078125 345.671875 563.519531 299.148438 602.421875 C 283.6875 615.328125 269.9375 629.914062 258.007812 645.832031 L 246.257812 617.394531 L 244.785156 613.859375 L 233.382812 613.054688 L 196.234375 610.394531 L 169.75 608.507812 L 168.703125 608.4375 L 168.703125 687.214844 C 171.429688 688.824219 173.285156 691.761719 173.285156 695.121094 C 173.285156 697.988281 171.957031 700.578125 169.855469 702.222656 C 169.507812 702.539062 169.121094 702.816406 168.703125 703.027344 L 168.703125 711.667969 L 178.320312 730.90625 L 149.496094 730.90625 L 158.941406 712.015625 L 158.941406 703.550781 C 156.214844 701.976562 154.359375 699.039062 154.359375 695.644531 C 154.359375 692.460938 155.96875 689.664062 158.453125 688.019531 C 158.628906 687.878906 158.765625 687.738281 158.941406 687.636719 C 159.152344 687.496094 159.328125 687.355469 159.570312 687.214844 L 159.570312 607.808594 L 317.792969 457.28125 L 495.847656 452.839844 L 536.109375 451.824219 L 480.140625 516.367188 " fill-opacity="1" fill-rule="evenodd"/></g><g transform="matrix(1, 0, 0, 1, 395, 656)"><g clip-path="url(#048fb41012)"><g fill="#264790" fill-opacity="1"><g transform="translate(1.05943, 191.722936)"><g><path d="M 123.65625 -49.546875 L 44.203125 -49.546875 C 44.203125 -41.859375 46.691406 -36.160156 51.671875 -32.453125 C 56.660156 -28.753906 62.078125 -26.90625 67.921875 -26.90625 C 74.046875 -26.90625 78.882812 -27.722656 82.4375 -29.359375 C 86 -31.003906 90.054688 -34.242188 94.609375 -39.078125 L 121.953125 -25.421875 C 110.554688 -6.335938 91.617188 3.203125 65.140625 3.203125 C 48.617188 3.203125 34.445312 -2.453125 22.625 -13.765625 C 10.8125 -25.085938 4.90625 -38.722656 4.90625 -54.671875 C 4.90625 -70.617188 10.8125 -84.285156 22.625 -95.671875 C 34.445312 -107.066406 48.617188 -112.765625 65.140625 -112.765625 C 82.515625 -112.765625 96.644531 -107.742188 107.53125 -97.703125 C 118.425781 -87.671875 123.875 -73.328125 123.875 -54.671875 C 123.875 -52.109375 123.800781 -50.398438 123.65625 -49.546875 Z M 45.28125 -70.484375 L 86.921875 -70.484375 C 86.066406 -76.179688 83.820312 -80.554688 80.1875 -83.609375 C 76.5625 -86.671875 71.898438 -88.203125 66.203125 -88.203125 C 59.941406 -88.203125 54.957031 -86.566406 51.25 -83.296875 C 47.550781 -80.023438 45.5625 -75.753906 45.28125 -70.484375 Z M 45.28125 -70.484375 "/></g></g></g><g fill="#264790" fill-opacity="1"><g transform="translate(113.826636, 191.722936)"><g><path d="M 20.28125 -13.5625 C 10.03125 -24.738281 4.90625 -38.441406 4.90625 -54.671875 C 4.90625 -70.910156 10.03125 -84.648438 20.28125 -95.890625 C 30.539062 -107.140625 43.570312 -112.765625 59.375 -112.765625 C 73.894531 -112.765625 85.851562 -108.207031 95.25 -99.09375 L 95.25 -183.671875 L 133.0625 -183.671875 L 133.0625 0 L 95.6875 0 L 95.6875 -12.390625 L 95.25 -12.390625 C 85.851562 -1.992188 73.894531 3.203125 59.375 3.203125 C 43.570312 3.203125 30.539062 -2.382812 20.28125 -13.5625 Z M 52.421875 -73.25 C 47.515625 -68.414062 45.0625 -62.222656 45.0625 -54.671875 C 45.0625 -47.128906 47.410156 -40.972656 52.109375 -36.203125 C 56.804688 -31.429688 63 -29.046875 70.6875 -29.046875 C 78.09375 -29.046875 84.179688 -31.460938 88.953125 -36.296875 C 93.722656 -41.140625 96.109375 -47.265625 96.109375 -54.671875 C 96.109375 -62.222656 93.648438 -68.414062 88.734375 -73.25 C 83.828125 -78.09375 77.8125 -80.515625 70.6875 -80.515625 C 63.425781 -80.515625 57.335938 -78.09375 52.421875 -73.25 Z M 52.421875 -73.25 "/></g></g></g><g fill="#264790" fill-opacity="1"><g transform="translate(243.679904, 191.722936)"><g><path d="M 48.484375 -109.5625 L 48.484375 -57.453125 C 48.484375 -46.628906 50.117188 -38.9375 53.390625 -34.375 C 56.671875 -29.820312 62.222656 -27.546875 70.046875 -27.546875 C 77.878906 -27.546875 83.429688 -29.820312 86.703125 -34.375 C 89.984375 -38.9375 91.625 -46.628906 91.625 -57.453125 L 91.625 -109.5625 L 129.421875 -109.5625 L 129.421875 -48.265625 C 129.421875 -30.046875 124.6875 -16.910156 115.21875 -8.859375 C 105.75 -0.816406 90.691406 3.203125 70.046875 3.203125 C 49.398438 3.203125 34.34375 -0.816406 24.875 -8.859375 C 15.40625 -16.910156 10.671875 -30.046875 10.671875 -48.265625 L 10.671875 -109.5625 Z M 48.484375 -109.5625 "/></g></g></g><g fill="#264790" fill-opacity="1"><g transform="translate(367.766608, 191.722936)"><g><path d="M 67.921875 0 L -5.984375 -176.203125 L 39.296875 -176.203125 L 83.71875 -60.4375 L 128.140625 -176.203125 L 173.421875 -176.203125 L 99.53125 0 Z M 67.921875 0 "/></g></g></g><g fill="#264790" fill-opacity="1"><g transform="translate(519.191012, 191.722936)"><g><path d="M 123.65625 -49.546875 L 44.203125 -49.546875 C 44.203125 -41.859375 46.691406 -36.160156 51.671875 -32.453125 C 56.660156 -28.753906 62.078125 -26.90625 67.921875 -26.90625 C 74.046875 -26.90625 78.882812 -27.722656 82.4375 -29.359375 C 86 -31.003906 90.054688 -34.242188 94.609375 -39.078125 L 121.953125 -25.421875 C 110.554688 -6.335938 91.617188 3.203125 65.140625 3.203125 C 48.617188 3.203125 34.445312 -2.453125 22.625 -13.765625 C 10.8125 -25.085938 4.90625 -38.722656 4.90625 -54.671875 C 4.90625 -70.617188 10.8125 -84.285156 22.625 -95.671875 C 34.445312 -107.066406 48.617188 -112.765625 65.140625 -112.765625 C 82.515625 -112.765625 96.644531 -107.742188 107.53125 -97.703125 C 118.425781 -87.671875 123.875 -73.328125 123.875 -54.671875 C 123.875 -52.109375 123.800781 -50.398438 123.65625 -49.546875 Z M 45.28125 -70.484375 L 86.921875 -70.484375 C 86.066406 -76.179688 83.820312 -80.554688 80.1875 -83.609375 C 76.5625 -86.671875 71.898438 -88.203125 66.203125 -88.203125 C 59.941406 -88.203125 54.957031 -86.566406 51.25 -83.296875 C 47.550781 -80.023438 45.5625 -75.753906 45.28125 -70.484375 Z M 45.28125 -70.484375 "/></g></g></g><g fill="#264790" fill-opacity="1"><g transform="translate(631.958218, 191.722936)"><g><path d="M 12.8125 0 L 12.8125 -109.5625 L 50.625 -109.5625 L 50.625 -93.765625 L 51.046875 -93.765625 C 51.328125 -94.328125 51.785156 -95.035156 52.421875 -95.890625 C 53.066406 -96.742188 54.457031 -98.238281 56.59375 -100.375 C 58.726562 -102.507812 61.003906 -104.429688 63.421875 -106.140625 C 65.847656 -107.859375 68.984375 -109.390625 72.828125 -110.734375 C 76.671875 -112.085938 80.585938 -112.765625 84.578125 -112.765625 C 88.703125 -112.765625 92.757812 -112.195312 96.75 -111.0625 C 100.738281 -109.925781 103.65625 -108.785156 105.5 -107.640625 L 108.5 -105.9375 L 92.6875 -73.890625 C 87.988281 -77.878906 81.441406 -79.875 73.046875 -79.875 C 68.484375 -79.875 64.566406 -78.875 61.296875 -76.875 C 58.023438 -74.882812 55.710938 -72.46875 54.359375 -69.625 C 53.003906 -66.78125 52.039062 -64.359375 51.46875 -62.359375 C 50.90625 -60.367188 50.625 -58.804688 50.625 -57.671875 L 50.625 0 Z M 12.8125 0 "/></g></g></g><g fill="#264790" fill-opacity="1"><g transform="translate(722.299917, 191.722936)"><g><path d="M 60.4375 -112.765625 C 66.707031 -112.765625 72.898438 -112.050781 79.015625 -110.625 C 85.140625 -109.207031 89.695312 -107.785156 92.6875 -106.359375 L 97.171875 -104.21875 L 84.796875 -79.453125 C 76.242188 -84.003906 68.125 -86.28125 60.4375 -86.28125 C 56.164062 -86.28125 53.140625 -85.816406 51.359375 -84.890625 C 49.585938 -83.972656 48.703125 -82.234375 48.703125 -79.671875 C 48.703125 -79.097656 48.769531 -78.523438 48.90625 -77.953125 C 49.050781 -77.390625 49.335938 -76.859375 49.765625 -76.359375 C 50.191406 -75.859375 50.582031 -75.425781 50.9375 -75.0625 C 51.289062 -74.707031 51.894531 -74.316406 52.75 -73.890625 C 53.601562 -73.460938 54.28125 -73.140625 54.78125 -72.921875 C 55.28125 -72.710938 56.097656 -72.394531 57.234375 -71.96875 C 58.378906 -71.539062 59.234375 -71.21875 59.796875 -71 C 60.367188 -70.789062 61.332031 -70.472656 62.6875 -70.046875 C 64.039062 -69.617188 65.070312 -69.335938 65.78125 -69.203125 C 70.195312 -67.921875 74.039062 -66.492188 77.3125 -64.921875 C 80.59375 -63.359375 84.046875 -61.222656 87.671875 -58.515625 C 91.304688 -55.816406 94.117188 -52.398438 96.109375 -48.265625 C 98.097656 -44.140625 99.09375 -39.441406 99.09375 -34.171875 C 99.09375 -9.253906 81.796875 3.203125 47.203125 3.203125 C 39.367188 3.203125 31.925781 1.992188 24.875 -0.421875 C 17.832031 -2.847656 12.742188 -5.269531 9.609375 -7.6875 L 4.90625 -11.53125 L 20.296875 -37.375 C 21.429688 -36.375 22.921875 -35.195312 24.765625 -33.84375 C 26.617188 -32.5 29.96875 -30.648438 34.8125 -28.296875 C 39.65625 -25.953125 43.859375 -24.78125 47.421875 -24.78125 C 55.242188 -24.78125 59.15625 -27.410156 59.15625 -32.671875 C 59.15625 -35.097656 58.160156 -36.984375 56.171875 -38.328125 C 54.179688 -39.679688 50.800781 -41.210938 46.03125 -42.921875 C 41.257812 -44.628906 37.519531 -46.195312 34.8125 -47.625 C 27.976562 -51.1875 22.566406 -55.207031 18.578125 -59.6875 C 14.585938 -64.175781 12.59375 -70.125 12.59375 -77.53125 C 12.59375 -88.632812 16.898438 -97.28125 25.515625 -103.46875 C 34.128906 -109.664062 45.769531 -112.765625 60.4375 -112.765625 Z M 60.4375 -112.765625 "/></g></g></g><g fill="#264790" fill-opacity="1"><g transform="translate(811.360262, 191.722936)"><g><path d="M 123.65625 -49.546875 L 44.203125 -49.546875 C 44.203125 -41.859375 46.691406 -36.160156 51.671875 -32.453125 C 56.660156 -28.753906 62.078125 -26.90625 67.921875 -26.90625 C 74.046875 -26.90625 78.882812 -27.722656 82.4375 -29.359375 C 86 -31.003906 90.054688 -34.242188 94.609375 -39.078125 L 121.953125 -25.421875 C 110.554688 -6.335938 91.617188 3.203125 65.140625 3.203125 C 48.617188 3.203125 34.445312 -2.453125 22.625 -13.765625 C 10.8125 -25.085938 4.90625 -38.722656 4.90625 -54.671875 C 4.90625 -70.617188 10.8125 -84.285156 22.625 -95.671875 C 34.445312 -107.066406 48.617188 -112.765625 65.140625 -112.765625 C 82.515625 -112.765625 96.644531 -107.742188 107.53125 -97.703125 C 118.425781 -87.671875 123.875 -73.328125 123.875 -54.671875 C 123.875 -52.109375 123.800781 -50.398438 123.65625 -49.546875 Z M 45.28125 -70.484375 L 86.921875 -70.484375 C 86.066406 -76.179688 83.820312 -80.554688 80.1875 -83.609375 C 76.5625 -86.671875 71.898438 -88.203125 66.203125 -88.203125 C 59.941406 -88.203125 54.957031 -86.566406 51.25 -83.296875 C 47.550781 -80.023438 45.5625 -75.753906 45.28125 -70.484375 Z M 45.28125 -70.484375 "/></g></g></g></g></g></svg>